<svg xmlns="http://www.w3.org/2000/svg" width="369.445" height="166.667"><path fill-rule="evenodd" clip-rule="evenodd" fill="#fff" d="M183.703 90.621h10.09v20.181c0 6.885.501 13.869-.528 19.516-1.868 10.219-9.795 18.301-21.906 18.324-6.977.013-12.167-2.873-15.8-6.509-3.816-3.814-6.66-8.617-7.036-15.134-.38-6.56 2.468-12.458 5.973-16.197 3.972-4.236 9.761-8.15 18.32-7.436 4.553.382 8.014 3.117 10.758 5.18v-17.528c-.015-.186-.026-.375.129-.397m-23.497 28.941c-.533 1.081-1.185 3.126-1.332 4.781-.718 8.263 4.828 14.697 12.084 14.872 6.157.143 11.625-4.89 12.48-11.686.424-3.388-.668-7.265-1.991-9.426-1.979-3.229-5.785-5.81-11.152-5.311-5.139.478-8.506 3.547-10.089 6.77"/><path fill-rule="evenodd" clip-rule="evenodd" fill="#fff" d="M5.664 150.231c3.145.602 7.888-.783 11.152 0 1.007.244 2.934 2.453 3.984 3.056 5.225 2.991 12.204 1.801 15.801-1.728 2.537-2.488 3.532-5.389 4.113-9.691-1.276.904-1.823 2.117-3.184 3.186-5.985 4.713-15.576 4.162-21.775.266-5.484-3.448-10.218-10.284-10.755-17.657-.591-8.115 2.69-13.824 6.771-17.791 3.572-3.472 8.183-6.188 14.339-6.639 9.223-.676 15.297 3.126 19.253 7.965 2.096 2.57 3.562 5.741 4.246 9.295.722 3.749.532 8.242.532 13.011 0 10.03-.682 16.575-4.911 22.172-3.911 5.175-10.24 8.762-18.323 8.762-11.17 0-17.655-6.005-21.243-14.207m9.824-28.01c-2.204 9.221 4.411 17.828 13.94 16.862 5.988-.611 10.899-6.758 10.489-14.208-.404-7.349-6.21-13.027-14.073-12.081-5.447.654-9.303 5.025-10.356 9.427"/><path fill-rule="evenodd" clip-rule="evenodd" fill="#fff" d="M74.835 103.366c6.98-.545 13.186 2.281 16.862 5.708 3.602 3.36 6.854 8.758 7.3 15.27.508 7.35-2.266 12.916-5.707 16.863-3.462 3.969-8.732 6.86-15.136 7.3-6.879.475-12.796-2.287-16.729-5.84-4.125-3.726-6.907-8.382-7.435-15.137-.832-10.645 4.949-18.024 11.948-21.642 2.557-1.318 5.514-2.255 8.897-2.522m-10.753 22.041c-.348 8.021 5.552 14.54 13.94 13.676 6.064-.629 10.582-6.01 10.754-12.613.116-4.447-2.121-8.786-4.513-10.89-1.854-1.626-5.117-3.29-9.294-2.786-6.13.737-10.607 6.087-10.887 12.613"/><path fill-rule="evenodd" clip-rule="evenodd" fill="#fff" d="M122.099 103.366c7.133-.586 13.037 2.265 16.863 5.708 3.662 3.294 7.001 8.564 7.301 15.139.339 7.418-1.953 13.035-5.575 16.994-3.588 3.919-8.687 6.827-15.136 7.302-6.951.51-12.719-2.293-16.729-5.842-3.984-3.532-7.131-8.354-7.567-14.872-.526-7.83 2.42-13.062 5.708-16.86 3.337-3.857 8.29-7.006 15.135-7.569m-3.318 10.359c-3.669 1.74-6.845 5.513-7.303 10.752-.672 7.714 4.344 13.995 10.887 14.606 8.417.784 14.517-6.111 13.675-14.739-.641-6.576-6.113-12.526-13.809-11.55-1.281.162-2.475.467-3.45.931"/><path fill-rule="evenodd" clip-rule="evenodd" fill="#fff" d="M198.176 150.231h5.71c1.782 0 4.045-.399 5.574 0 1.066.282 2.372 2.184 3.318 2.792 4.051 2.582 10.237 2.566 14.075.264 3.709-2.224 5.865-5.997 6.375-11.419-1.355 1.121-2.051 2.344-3.322 3.318-6.713 5.146-17.068 3.525-22.836-.661-5.813-4.228-10.165-11.554-9.56-20.582.406-6.07 3.349-10.518 6.771-13.939 3.499-3.5 7.979-6.303 14.341-6.771 7.992-.586 14.084 2.485 17.922 6.374 3.532 3.579 5.769 8.617 6.108 14.072.33 5.31 0 10.778 0 16.064 0 5.021-1.146 9.588-2.922 13.011-3.52 6.785-11.118 11.661-20.18 11.683-11.263.03-17.714-6.013-21.374-14.206m13.277-34.119c-2.043 2.042-3.444 4.537-3.72 8.101-.641 8.323 4.729 14.271 11.155 14.87 8.19.76 14.328-5.951 13.543-14.87-.588-6.662-6.345-12.349-14.072-11.419-3.234.388-5.365 1.776-6.906 3.318"/><path fill-rule="evenodd" clip-rule="evenodd" fill="#fff" d="M323.221 108.678c3.558-4.351 12.281-6.579 18.851-4.645 4.714 1.384 8.323 4.467 10.489 8.229 4.846 8.418 1.652 23.163 2.392 34.917h-10.089c-.429-8.026.563-18.775 0-26.553-.253-3.473-2.325-6.308-5.049-7.436-5.529-2.289-10.884 1.889-11.416 6.636-.448 3.985 0 9.034 0 13.809 0 4.842.107 9.569-.133 13.544h-10.091c-.615-7.911.811-19.222 0-27.081-.353-3.414-2.82-6.267-5.708-7.173-5.404-1.689-10.243 2.375-10.757 7.173-.435 4.078 0 8.851 0 13.537.003 4.589 0 9.221 0 13.544h-10.088c.739-13.333-2.634-27.673 2.921-35.98 2.738-4.095 7.724-7.509 13.939-7.965 6.94-.511 11.169 2.279 14.739 5.444"/><path fill-rule="evenodd" clip-rule="evenodd" fill="#fff" d="M244.911 104.693h11.019c3.768 8.803 7.213 17.924 11.155 26.555 3.772-8.794 7.471-17.665 11.15-26.555h10.886c-8.22 18.821-16.357 37.725-24.562 56.558h-10.223c2.405-5.604 4.753-11.266 7.17-16.856-5.412-13.359-11.124-26.407-16.595-39.702"/><path fill="#fff" d="M258.521 36.708c-1.458-10.117-6.385-18.319-14.787-24.603-8.399-6.287-17.672-8.702-27.823-7.23-6.339.909-12.167 3.389-17.49 7.446-5.045 4.014-8.97 9.017-11.782 15.009l9.816 4.471c2-4.281 4.822-7.892 8.464-10.823 1.349-1.075 2.749-1.995 4.196-2.771 3.006-1.379 6.168-2.251 9.502-2.592 4.804-.475 9.31.251 13.5 2.188 6.67 3.08 11.303 8.122 13.883 15.139 2.581 7.008 2.334 13.854-.749 20.53-3.074 6.67-8.12 11.293-15.134 13.875-1.247.461-2.488.827-3.723 1.105-.429.083-.857.156-1.291.217l-.363.108c-5.148.837-10.195.114-15.15-2.173-4.813-2.222-8.543-5.423-11.188-9.603l9.688.208.318-9.489-17.837-.38v-.004l-9.486-.206 2.82 27.919 9.857.274-.972-8.513c2.939 3.872 7.049 7.029 12.331 9.466 8.037 3.711 16.24 4.492 24.608 2.362 8.76-1.951 15.947-6.652 21.555-14.114 6.287-8.402 8.697-17.672 7.237-27.816"/><path fill="#fff" d="M99.832 36.708c1.458-10.117 6.389-18.319 14.79-24.603 8.398-6.287 17.672-8.702 27.821-7.23 6.34.909 12.168 3.389 17.492 7.446 5.041 4.014 8.967 9.017 11.781 15.009l-9.816 4.471c-2.002-4.281-4.823-7.892-8.464-10.823-1.348-1.075-2.749-1.995-4.198-2.771-3.003-1.379-6.167-2.251-9.5-2.592-4.804-.475-9.308.251-13.5 2.188-6.67 3.08-11.3 8.122-13.882 15.139-2.581 7.008-2.334 13.854.747 20.53 3.079 6.67 8.122 11.293 15.136 13.875 1.247.461 2.488.827 3.725 1.105.425.083.854.156 1.29.217l.366.108c5.143.837 10.193.114 15.147-2.173 4.812-2.222 8.542-5.423 11.188-9.603l-9.687.208-.321-9.489 17.839-.38v-.004l9.483-.206-2.819 27.92-9.857.274.969-8.513c-2.942 3.872-7.045 7.029-12.329 9.466-8.037 3.711-16.239 4.492-24.607 2.362-8.759-1.951-15.945-6.652-21.556-14.114-6.287-8.403-8.695-17.673-7.238-27.817"/><text transform="translate(353.193 108.257)" fill="#fff" font-family="'Helvetica-Bold'" font-size="16.928">®</text></svg>