<?xml version="1.0" encoding="utf-8"?>
<!-- Generator: Adobe Illustrator 16.0.0, SVG Export Plug-In . SVG Version: 6.00 Build 0)  -->
<!DOCTYPE svg PUBLIC "-//W3C//DTD SVG 1.1//EN" "http://www.w3.org/Graphics/SVG/1.1/DTD/svg11.dtd">
<svg version="1.1" id="Layer_1" xmlns="http://www.w3.org/2000/svg" xmlns:xlink="http://www.w3.org/1999/xlink" x="0px" y="0px"
	 width="369.445px" height="166.667px" viewBox="0 0 369.445 166.667" enable-background="new 0 0 369.445 166.667"
	 xml:space="preserve">
<path fill-rule="evenodd" clip-rule="evenodd" fill="#FFFFFF" d="M183.703,90.621h10.09v20.181c0,6.885,0.501,13.869-0.528,19.516
	c-1.868,10.219-9.795,18.301-21.906,18.324c-6.977,0.013-12.167-2.873-15.8-6.509c-3.816-3.814-6.66-8.617-7.036-15.134
	c-0.38-6.56,2.468-12.458,5.973-16.197c3.972-4.236,9.761-8.15,18.32-7.436c4.553,0.382,8.014,3.117,10.758,5.18V91.018
	C183.559,90.832,183.548,90.643,183.703,90.621 M160.206,119.562c-0.533,1.081-1.185,3.126-1.332,4.781
	c-0.718,8.263,4.828,14.697,12.084,14.872c6.157,0.143,11.625-4.89,12.48-11.686c0.424-3.388-0.668-7.265-1.991-9.426
	c-1.979-3.229-5.785-5.81-11.152-5.311C165.156,113.27,161.789,116.339,160.206,119.562"/>
<path fill-rule="evenodd" clip-rule="evenodd" fill="#FFFFFF" d="M5.664,150.231c3.145,0.602,7.888-0.783,11.152,0
	c1.007,0.244,2.934,2.453,3.984,3.056c5.225,2.991,12.204,1.801,15.801-1.728c2.537-2.488,3.532-5.389,4.113-9.691
	c-1.276,0.904-1.823,2.117-3.184,3.186c-5.985,4.713-15.576,4.162-21.775,0.266C10.271,141.872,5.537,135.036,5,127.663
	c-0.591-8.115,2.69-13.824,6.771-17.791c3.572-3.472,8.183-6.188,14.339-6.639c9.223-0.676,15.297,3.126,19.253,7.965
	c2.096,2.57,3.562,5.741,4.246,9.295c0.722,3.749,0.532,8.242,0.532,13.011c0,10.03-0.682,16.575-4.911,22.172
	c-3.911,5.175-10.24,8.762-18.323,8.762C15.737,164.438,9.252,158.433,5.664,150.231 M15.488,122.221
	c-2.204,9.221,4.411,17.828,13.94,16.862c5.988-0.611,10.899-6.758,10.489-14.208c-0.404-7.349-6.21-13.027-14.073-12.081
	C20.397,113.448,16.541,117.819,15.488,122.221"/>
<path fill-rule="evenodd" clip-rule="evenodd" fill="#FFFFFF" d="M74.835,103.366c6.98-0.545,13.186,2.281,16.862,5.708
	c3.602,3.36,6.854,8.758,7.3,15.27c0.508,7.35-2.266,12.916-5.707,16.863c-3.462,3.969-8.732,6.86-15.136,7.3
	c-6.879,0.475-12.796-2.287-16.729-5.84c-4.125-3.726-6.907-8.382-7.435-15.137c-0.832-10.645,4.949-18.024,11.948-21.642
	C68.495,104.57,71.452,103.633,74.835,103.366 M64.082,125.407c-0.348,8.021,5.552,14.54,13.94,13.676
	c6.064-0.629,10.582-6.01,10.754-12.613c0.116-4.447-2.121-8.786-4.513-10.89c-1.854-1.626-5.117-3.29-9.294-2.786
	C68.839,113.531,64.362,118.881,64.082,125.407"/>
<path fill-rule="evenodd" clip-rule="evenodd" fill="#FFFFFF" d="M122.099,103.366c7.133-0.586,13.037,2.265,16.863,5.708
	c3.662,3.294,7.001,8.564,7.301,15.139c0.339,7.418-1.953,13.035-5.575,16.994c-3.588,3.919-8.687,6.827-15.136,7.302
	c-6.951,0.51-12.719-2.293-16.729-5.842c-3.984-3.532-7.131-8.354-7.567-14.872c-0.526-7.83,2.42-13.062,5.708-16.86
	C110.301,107.078,115.254,103.929,122.099,103.366 M118.781,113.725c-3.669,1.74-6.845,5.513-7.303,10.752
	c-0.672,7.714,4.344,13.995,10.887,14.606c8.417,0.784,14.517-6.111,13.675-14.739c-0.641-6.576-6.113-12.526-13.809-11.55
	C120.95,112.956,119.756,113.261,118.781,113.725"/>
<path fill-rule="evenodd" clip-rule="evenodd" fill="#FFFFFF" d="M198.176,150.231h5.71c1.782,0,4.045-0.399,5.574,0
	c1.066,0.282,2.372,2.184,3.318,2.792c4.051,2.582,10.237,2.566,14.075,0.264c3.709-2.224,5.865-5.997,6.375-11.419
	c-1.355,1.121-2.051,2.344-3.322,3.318c-6.713,5.146-17.068,3.525-22.836-0.661c-5.813-4.228-10.165-11.554-9.56-20.582
	c0.406-6.07,3.349-10.518,6.771-13.939c3.499-3.5,7.979-6.303,14.341-6.771c7.992-0.586,14.084,2.485,17.922,6.374
	c3.532,3.579,5.769,8.617,6.108,14.072c0.33,5.31,0,10.778,0,16.064c0,5.021-1.146,9.588-2.922,13.011
	c-3.52,6.785-11.118,11.661-20.18,11.683C208.287,164.467,201.836,158.424,198.176,150.231 M211.453,116.112
	c-2.043,2.042-3.444,4.537-3.72,8.101c-0.641,8.323,4.729,14.271,11.155,14.87c8.19,0.76,14.328-5.951,13.543-14.87
	c-0.588-6.662-6.345-12.349-14.072-11.419C215.125,113.182,212.994,114.57,211.453,116.112"/>
<path fill-rule="evenodd" clip-rule="evenodd" fill="#FFFFFF" d="M323.221,108.678c3.558-4.351,12.281-6.579,18.851-4.645
	c4.714,1.384,8.323,4.467,10.489,8.229c4.846,8.418,1.652,23.163,2.392,34.917h-10.089c-0.429-8.026,0.563-18.775,0-26.553
	c-0.253-3.473-2.325-6.308-5.049-7.436c-5.529-2.289-10.884,1.889-11.416,6.636c-0.448,3.985,0,9.034,0,13.809
	c0,4.842,0.107,9.569-0.133,13.544h-10.091c-0.615-7.911,0.811-19.222,0-27.081c-0.353-3.414-2.82-6.267-5.708-7.173
	c-5.404-1.689-10.243,2.375-10.757,7.173c-0.435,4.078,0,8.851,0,13.537c0.003,4.589,0,9.221,0,13.544h-10.088
	c0.739-13.333-2.634-27.673,2.921-35.98c2.738-4.095,7.724-7.509,13.939-7.965C315.422,102.723,319.651,105.513,323.221,108.678"/>
<path fill-rule="evenodd" clip-rule="evenodd" fill="#FFFFFF" d="M244.911,104.693h11.019c3.768,8.803,7.213,17.924,11.155,26.555
	c3.772-8.794,7.471-17.665,11.15-26.555h10.886c-8.22,18.821-16.357,37.725-24.562,56.558h-10.223
	c2.405-5.604,4.753-11.266,7.17-16.856C256.094,131.036,250.382,117.988,244.911,104.693"/>
<path fill="#FFFFFF" d="M258.521,36.708c-1.458-10.117-6.385-18.319-14.787-24.603c-8.399-6.287-17.672-8.702-27.823-7.23
	c-6.339,0.909-12.167,3.389-17.49,7.446c-5.045,4.014-8.97,9.017-11.782,15.009l9.816,4.471c2-4.281,4.822-7.892,8.464-10.823
	c1.349-1.075,2.749-1.995,4.196-2.771c3.006-1.379,6.168-2.251,9.502-2.592c4.804-0.475,9.31,0.251,13.5,2.188
	c6.67,3.08,11.303,8.122,13.883,15.139c2.581,7.008,2.334,13.854-0.749,20.53c-3.074,6.67-8.12,11.293-15.134,13.875
	c-1.247,0.461-2.488,0.827-3.723,1.105c-0.429,0.083-0.857,0.156-1.291,0.217l-0.363,0.108c-5.148,0.837-10.195,0.114-15.15-2.173
	c-4.813-2.222-8.543-5.423-11.188-9.603l9.688,0.208l0.318-9.489l-17.837-0.38v-0.004l-9.486-0.206l2.82,27.919l9.857,0.274
	l-0.972-8.513c2.939,3.872,7.049,7.029,12.331,9.466c8.037,3.711,16.24,4.492,24.608,2.362c8.76-1.951,15.947-6.652,21.555-14.114
	C257.571,56.122,259.981,46.852,258.521,36.708"/>
<path fill="#FFFFFF" d="M99.832,36.708c1.458-10.117,6.389-18.319,14.79-24.603c8.398-6.287,17.672-8.702,27.821-7.23
	c6.34,0.909,12.168,3.389,17.492,7.446c5.041,4.014,8.967,9.017,11.781,15.009l-9.816,4.471c-2.002-4.281-4.823-7.892-8.464-10.823
	c-1.348-1.075-2.749-1.995-4.198-2.771c-3.003-1.379-6.167-2.251-9.5-2.592c-4.804-0.475-9.308,0.251-13.5,2.188
	c-6.67,3.08-11.3,8.122-13.882,15.139c-2.581,7.008-2.334,13.854,0.747,20.53c3.079,6.67,8.122,11.293,15.136,13.875
	c1.247,0.461,2.488,0.827,3.725,1.105c0.425,0.083,0.854,0.156,1.29,0.217l0.366,0.108c5.143,0.837,10.193,0.114,15.147-2.173
	c4.812-2.222,8.542-5.423,11.188-9.603l-9.687,0.208l-0.321-9.489l17.839-0.38v-0.004l9.483-0.206L174.45,75.05l-9.857,0.274
	l0.969-8.513c-2.942,3.872-7.045,7.029-12.329,9.466c-8.037,3.711-16.239,4.492-24.607,2.362
	c-8.759-1.951-15.945-6.652-21.556-14.114C100.783,56.122,98.375,46.852,99.832,36.708"/>
<text transform="matrix(1 0 0 1 353.1929 108.2568)" fill="#FFFFFF" font-family="'Helvetica-Bold'" font-size="16.928">®</text>
</svg>
