<?xml version="1.0" encoding="utf-8"?>
<!-- Generator: Adobe Illustrator 16.0.0, SVG Export Plug-In . SVG Version: 6.00 Build 0)  -->
<!DOCTYPE svg PUBLIC "-//W3C//DTD SVG 1.1//EN" "http://www.w3.org/Graphics/SVG/1.1/DTD/svg11.dtd">
<svg version="1.1" id="Layer_1" xmlns="http://www.w3.org/2000/svg" xmlns:xlink="http://www.w3.org/1999/xlink" x="0px" y="0px"
	 width="164px" height="79px" viewBox="0 0 164 79" enable-background="new 0 0 164 79" xml:space="preserve">
<path fill="#FFFFFF" d="M161.102,34.251c-1.459-10.117-6.386-18.319-14.787-24.603c-8.399-6.287-17.672-8.702-27.823-7.23
	c-6.339,0.909-12.167,3.389-17.49,7.446c-5.045,4.014-8.97,9.017-11.782,15.009l9.816,4.471c2-4.281,4.822-7.892,8.464-10.823
	c1.349-1.075,2.749-1.995,4.196-2.771c3.006-1.379,6.168-2.251,9.502-2.592c4.804-0.475,9.31,0.251,13.5,2.188
	c6.67,3.08,11.303,8.122,13.883,15.139c2.581,7.008,2.334,13.854-0.749,20.531c-3.074,6.67-8.12,11.293-15.134,13.875
	c-1.247,0.461-2.488,0.826-3.723,1.104c-0.43,0.083-0.857,0.155-1.291,0.217l-0.363,0.108c-5.148,0.837-10.195,0.113-15.15-2.174
	c-4.812-2.222-8.543-5.422-11.188-9.603l9.688,0.208l0.318-9.488L93.15,44.883v-0.004l-9.485-0.206l2.819,27.919l9.857,0.274
	l-0.972-8.513c2.938,3.871,7.049,7.028,12.331,9.465c8.037,3.711,16.24,4.492,24.607,2.363c8.76-1.951,15.947-6.652,21.556-14.115
	C160.15,53.666,162.561,44.395,161.102,34.251"/>
<path fill="#FFFFFF" d="M2.412,34.251C3.87,24.134,8.801,15.933,17.202,9.648c8.398-6.287,17.672-8.702,27.821-7.23
	c6.34,0.909,12.168,3.389,17.492,7.446c5.041,4.014,8.967,9.017,11.781,15.009l-9.816,4.471c-2.002-4.281-4.823-7.892-8.464-10.823
	c-1.348-1.075-2.749-1.995-4.198-2.771c-3.003-1.379-6.167-2.251-9.5-2.592c-4.804-0.475-9.308,0.251-13.5,2.188
	c-6.67,3.08-11.3,8.122-13.882,15.139c-2.581,7.008-2.334,13.854,0.747,20.531c3.079,6.67,8.122,11.293,15.136,13.875
	c1.247,0.461,2.488,0.826,3.725,1.104c0.425,0.083,0.854,0.155,1.29,0.217l0.366,0.108c5.143,0.837,10.193,0.113,15.147-2.174
	c4.812-2.222,8.542-5.422,11.188-9.603l-9.687,0.208l-0.321-9.488l17.839-0.381v-0.004l9.483-0.206l-2.819,27.92l-9.857,0.274
	l0.969-8.514c-2.942,3.873-7.045,7.029-12.329,9.467c-8.037,3.711-16.239,4.492-24.607,2.361
	C22.447,74.231,15.261,69.53,9.65,62.069C3.363,53.666,0.955,44.395,2.412,34.251"/>
</svg>
